<svg width="62" height="61" viewBox="0 0 62 61" fill="none" xmlns="http://www.w3.org/2000/svg">
<path d="M60.5 30.5C60.5 46.4934 47.3155 59.5 31 59.5C14.6845 59.5 1.5 46.4934 1.5 30.5C1.5 14.5066 14.6845 1.5 31 1.5C47.3155 1.5 60.5 14.5066 60.5 30.5Z" stroke="#F0E100" stroke-width="3"/>
<path d="M27.304 38.7727V38.5597C27.3277 36.2988 27.5644 34.4995 28.0142 33.1619C28.464 31.8243 29.1032 30.7412 29.9318 29.9126C30.7604 29.084 31.7547 28.3205 32.9148 27.6222C33.6132 27.196 34.2405 26.6929 34.7969 26.1129C35.3532 25.5211 35.7912 24.8404 36.1108 24.071C36.4422 23.3016 36.608 22.4493 36.608 21.5142C36.608 20.3542 36.3357 19.348 35.7912 18.4957C35.2467 17.6435 34.5187 16.9865 33.6072 16.5249C32.6958 16.0632 31.6837 15.8324 30.571 15.8324C29.6004 15.8324 28.6652 16.0336 27.7656 16.4361C26.866 16.8385 26.1143 17.4718 25.5107 18.3359C24.907 19.2 24.5578 20.3305 24.4631 21.7273H19.9886C20.0833 19.715 20.6042 17.9927 21.5511 16.5604C22.5099 15.1281 23.7706 14.0331 25.3331 13.2756C26.9074 12.518 28.6534 12.1392 30.571 12.1392C32.6544 12.1392 34.4654 12.5535 36.0043 13.3821C37.5549 14.2107 38.7505 15.3471 39.5909 16.7912C40.4432 18.2353 40.8693 19.8807 40.8693 21.7273C40.8693 23.0294 40.6681 24.2071 40.2656 25.2607C39.875 26.3142 39.3068 27.2552 38.5611 28.0838C37.8272 28.9124 36.9394 29.6463 35.8977 30.2855C34.8561 30.9366 34.0215 31.6231 33.3942 32.3452C32.7668 33.0554 32.3111 33.9018 32.027 34.8842C31.7429 35.8667 31.589 37.0919 31.5653 38.5597V38.7727H27.304ZM29.5767 49.2841C28.7008 49.2841 27.9491 48.9704 27.3217 48.343C26.6944 47.7157 26.3807 46.964 26.3807 46.0881C26.3807 45.2121 26.6944 44.4605 27.3217 43.8331C27.9491 43.2057 28.7008 42.892 29.5767 42.892C30.4527 42.892 31.2043 43.2057 31.8317 43.8331C32.459 44.4605 32.7727 45.2121 32.7727 46.0881C32.7727 46.6681 32.6248 47.2008 32.3288 47.6861C32.0447 48.1714 31.66 48.562 31.1747 48.858C30.7012 49.142 30.1686 49.2841 29.5767 49.2841Z" fill="#F0E100"/>
</svg>
