<svg width="166" height="98" viewBox="0 0 166 98" fill="none" xmlns="http://www.w3.org/2000/svg">
<path d="M147.789 65.2741C141.606 86.0253 103.703 93.328 63.1286 81.5852C22.5548 69.8424 -5.32455 43.5008 0.858455 22.7496C7.04146 1.99844 44.9454 -5.30429 85.5193 6.43851C126.093 18.1813 153.972 44.5229 147.789 65.2741Z" fill="#DA7422"/>
<path d="M21.7892 21.4023V36.2921H19.8025V25.1893L14.7811 36.2921H13.3838L8.34059 25.1678V36.2921H6.35386V21.4023H8.49341L14.0825 33.7101L19.6715 21.4023H21.7892Z" fill="#C8C8C8"/>
<path d="M27.1016 21.2948V30.7838C27.1016 32.1178 27.4291 33.1076 28.0841 33.7531C28.7536 34.3986 29.6778 34.7214 30.8567 34.7214C32.0211 34.7214 32.9308 34.3986 33.5858 33.7531C34.2553 33.1076 34.5901 32.1178 34.5901 30.7838V21.2948H36.5768V30.7622C36.5768 32.0102 36.3221 33.0646 35.8127 33.9252C35.3032 34.7716 34.6119 35.4027 33.7386 35.8187C32.8799 36.2347 31.912 36.4427 30.8349 36.4427C29.7579 36.4427 28.7827 36.2347 27.9094 35.8187C27.0507 35.4027 26.3666 34.7716 25.8572 33.9252C25.3623 33.0646 25.1149 32.0102 25.1149 30.7622V21.2948H27.1016Z" fill="#C8C8C8"/>
<path d="M44.7159 36.4427C43.7116 36.4427 42.8093 36.2706 42.0087 35.9263C41.2228 35.5677 40.6042 35.08 40.153 34.4632C39.7018 33.832 39.4689 33.1076 39.4544 32.29H41.5721C41.6449 32.9928 41.936 33.5881 42.4454 34.0759C42.9694 34.5492 43.7262 34.7859 44.7159 34.7859C45.662 34.7859 46.4043 34.5564 46.9428 34.0974C47.4959 33.624 47.7724 33.0215 47.7724 32.29C47.7724 31.7162 47.6123 31.25 47.2921 30.8913C46.9719 30.5327 46.5717 30.2602 46.0914 30.0737C45.6111 29.8872 44.9634 29.6864 44.1483 29.4712C43.144 29.213 42.3362 28.9548 41.7249 28.6966C41.1282 28.4384 40.6115 28.0368 40.1748 27.4917C39.7527 26.9322 39.5417 26.1863 39.5417 25.2539C39.5417 24.4362 39.7527 23.7118 40.1748 23.0807C40.5969 22.4495 41.1864 21.9618 41.9432 21.6175C42.7146 21.2732 43.5952 21.1011 44.5849 21.1011C46.0113 21.1011 47.1757 21.4526 48.0781 22.1554C48.995 22.8583 49.5117 23.7907 49.6282 24.9527H47.445C47.3722 24.3789 47.0665 23.8768 46.528 23.4465C45.9895 23.0018 45.2763 22.7794 44.3885 22.7794C43.5588 22.7794 42.882 22.9946 42.3581 23.4249C41.8341 23.8409 41.5721 24.4291 41.5721 25.1893C41.5721 25.7344 41.7249 26.1791 42.0306 26.5234C42.3508 26.8677 42.7365 27.133 43.1877 27.3195C43.6534 27.4917 44.3011 27.6925 45.1307 27.922C46.135 28.1945 46.9428 28.4671 47.5541 28.7396C48.1654 28.9978 48.6894 29.4067 49.126 29.9661C49.5627 30.5112 49.781 31.2571 49.781 32.2039C49.781 32.9355 49.5845 33.624 49.1915 34.2695C48.7986 34.915 48.2164 35.4386 47.445 35.8403C46.6736 36.2419 45.7639 36.4427 44.7159 36.4427Z" fill="#C8C8C8"/>
<path d="M54.6914 21.2948V36.2921H52.7046V21.2948H54.6914Z" fill="#C8C8C8"/>
<path d="M57.3351 28.7827C57.3351 27.3195 57.6699 26.007 58.3394 24.8451C59.0089 23.6688 59.9186 22.7507 61.0684 22.0909C62.2328 21.431 63.5209 21.1011 64.9327 21.1011C66.592 21.1011 68.0402 21.4956 69.2773 22.2845C70.5145 23.0735 71.4169 24.1924 71.9845 25.6412H69.6048C69.1827 24.7375 68.5714 24.0418 67.7709 23.554C66.9849 23.0663 66.0389 22.8225 64.9327 22.8225C63.8702 22.8225 62.9169 23.0663 62.0727 23.554C61.2285 24.0418 60.5663 24.7375 60.086 25.6412C59.6057 26.5306 59.3655 27.5777 59.3655 28.7827C59.3655 29.9733 59.6057 31.0204 60.086 31.9242C60.5663 32.8135 61.2285 33.5021 62.0727 33.9898C62.9169 34.4775 63.8702 34.7214 64.9327 34.7214C66.0389 34.7214 66.9849 34.4847 67.7709 34.0113C68.5714 33.5236 69.1827 32.8279 69.6048 31.9242H71.9845C71.4169 33.3586 70.5145 34.4703 69.2773 35.2593C68.0402 36.0339 66.592 36.4212 64.9327 36.4212C63.5209 36.4212 62.2328 36.0985 61.0684 35.453C59.9186 34.7931 59.0089 33.8822 58.3394 32.7203C57.6699 31.5584 57.3351 30.2458 57.3351 28.7827Z" fill="#C8C8C8"/>
<path d="M30.105 66.1339C31.117 65.8818 32.0661 65.5905 32.9522 65.2598C33.8383 64.9291 34.6125 64.6221 35.2748 64.3388C36.0636 64.0239 36.7749 63.6776 37.4085 63.2998C38.2271 62.8591 39.2264 62.2296 40.4065 61.4113C41.6158 60.5772 42.8591 59.7431 44.1365 58.9091C45.4043 58.0435 46.6327 57.2723 47.8218 56.5956C49.0306 55.8716 50.0485 55.4151 50.8756 55.226C51.6931 55.0054 52.5587 54.8871 53.4724 54.871C54.4057 54.8077 55.2995 54.8938 56.1536 55.1293C56.9982 55.3334 57.7593 55.7105 58.4369 56.2607C59.105 56.7794 59.6165 57.5105 59.9715 58.454C60.3153 59.6963 60.4012 60.9859 60.2294 62.3227C60.0975 63.4552 59.6973 64.7685 59.0291 66.2629C58.3512 67.7258 57.1825 69.1968 55.5229 70.6759C56.4675 70.3138 57.3092 70.1168 58.048 70.085C58.8065 70.0061 59.4818 70.0451 60.0739 70.2021C60.6857 70.3119 61.2095 70.524 61.6453 70.8384C62.1103 71.137 62.5023 71.475 62.8212 71.8523C63.5944 72.7169 64.1721 73.8333 64.5541 75.2014C64.9143 77.0571 65.0037 78.6376 64.8223 79.943C64.6701 81.2327 64.3732 82.3259 63.9314 83.2225C63.4896 84.1192 62.9806 84.8507 62.4043 85.4171C61.8281 85.9835 61.296 86.4713 60.808 86.8804C60.32 87.2896 59.696 87.6987 58.9358 88.108C58.1757 88.5172 57.3523 88.9422 56.4657 89.3829C55.5987 89.7765 54.7073 90.2015 53.7914 90.658C52.866 91.083 52.0036 91.5474 51.2041 92.051C50.5508 92.4759 49.7513 92.9795 48.8057 93.5618C48.0062 94.0654 47.0069 94.695 45.8077 95.4504C44.5989 96.1743 43.1903 97.0242 41.5818 98C41.8268 97.5753 42.0039 97.1506 42.1129 96.7259C42.2416 96.254 42.3407 95.8529 42.4104 95.5226C42.4609 95.1294 42.5017 94.7598 42.5325 94.4138C42.5437 94.115 42.4064 93.3837 42.1206 92.22C41.8347 91.0564 41.4673 89.6804 41.0183 88.0921C40.5598 86.4724 40.0532 84.7505 39.4985 82.9264C38.9634 81.0551 38.4084 79.2861 37.8335 77.6192C37.2782 75.9052 36.7559 74.4114 36.2665 73.1377C35.7968 71.8168 35.4126 70.8891 35.1139 70.3545C34.7377 69.7885 34.2981 69.2382 33.7954 68.7037C33.3798 68.232 32.8475 67.7683 32.1986 67.3125C31.5788 66.841 30.881 66.4481 30.105 66.1339ZM40.8214 65.9641C40.8596 66.0899 41.0034 66.5066 41.2526 67.2142C41.4731 67.8275 41.7988 68.7867 42.2298 70.0919C42.6804 71.3499 43.3129 73.1503 44.1275 75.4933C44.9636 75.4458 45.7373 75.2489 46.4485 74.9026C47.1502 74.5248 47.7692 74.155 48.3055 73.793C48.92 73.3524 49.4861 72.8646 50.0039 72.3296C50.688 71.5587 51.1298 70.6621 51.3293 69.6397C51.5579 68.6016 51.6162 67.6187 51.5042 66.6908C51.4118 65.7158 51.207 64.8744 50.8898 64.1669C50.5629 63.4278 50.2008 62.964 49.8032 62.7755C49.0851 62.5399 48.2642 62.4695 47.3404 62.5642C46.5527 62.6589 45.6036 62.9503 44.4932 63.4383C43.4024 63.8792 42.1785 64.7211 40.8214 65.9641ZM47.4022 88.4432C48.6656 88.4584 49.7354 88.34 50.6113 88.088C51.4873 87.836 52.203 87.5604 52.7585 87.2614C53.4017 86.9151 53.9285 86.5217 54.3389 86.0812C54.8083 85.4991 55.2344 84.8305 55.6171 84.0754C56.0196 83.2731 56.252 82.4709 56.3142 81.6688C56.3962 80.8195 56.2836 80.0018 55.9764 79.2155C55.6597 78.3979 55.0414 77.6511 54.1214 76.9752C53.3459 76.5509 52.5014 76.3468 51.5877 76.363C50.7808 76.3948 49.8222 76.6547 48.7118 77.1427C47.6306 77.615 46.4109 78.5827 45.0527 80.0459L47.4022 88.4432Z" fill="#F0E100"/>
<path d="M59.9475 51.4947C60.9798 51.0854 61.8417 50.7311 62.5332 50.432C63.2445 50.0857 63.8289 49.826 64.2866 49.6528C64.8319 49.4323 65.2508 49.2434 65.5432 49.086C65.8743 48.9443 66.3519 48.6689 66.976 48.2597C67.5123 47.8978 68.2339 47.4178 69.1408 46.8198C70.0769 46.206 71.2617 45.4034 72.6954 44.412C72.2142 45.403 71.8599 46.3075 71.6323 47.1254C71.4244 47.8961 71.285 48.5567 71.2143 49.1072C71.1137 49.7835 71.106 50.3733 71.191 50.8765C71.3036 51.6943 71.5169 52.7872 71.8308 54.1553C72.1645 55.4763 72.5364 56.923 72.9466 58.4955C73.3568 60.0681 73.8105 61.672 74.3078 63.3075C74.8052 64.9429 75.2932 66.4918 75.772 67.9542C76.2704 69.3694 76.7502 70.6117 77.2115 71.6809C77.702 72.7344 78.126 73.4577 78.4837 73.8507C78.9482 74.2594 79.4274 74.6602 79.9211 75.0532C80.3569 75.3676 80.856 75.6662 81.4183 75.949C81.9806 76.2319 82.5727 76.3889 83.1946 76.4201C81.441 77.2544 80.0526 77.9469 79.0294 78.4978L77.4506 79.3478C76.9829 79.5996 76.3931 79.9537 75.6813 80.4101C75.0865 80.8036 74.3309 81.2836 73.4145 81.8502C72.4981 82.4167 71.4012 83.1171 70.1238 83.9512C70.5572 82.8029 70.8539 81.7648 71.014 80.8368C71.174 79.9088 71.2897 79.1146 71.361 78.454C71.4329 77.6833 71.4266 76.9913 71.3421 76.378C71.2104 75.4973 70.9921 74.4437 70.6871 73.2171C70.4018 71.9434 70.0634 70.6067 69.6718 69.2071C69.2706 67.7761 68.8354 66.3452 68.3663 64.9142C67.9167 63.436 67.4571 62.0365 66.9874 60.7156C66.5177 59.3948 66.057 58.2154 65.6053 57.1776C65.1828 56.1241 64.7981 55.3065 64.4511 54.7247C64.239 54.3631 63.9249 54.0015 63.5088 53.6399C63.141 53.3255 62.6664 52.9955 62.0849 52.6497C61.5231 52.2568 60.8107 51.8718 59.9475 51.4947Z" fill="#F0E100"/>
<path d="M73.1236 43.303C74.5157 42.8463 75.6501 42.4369 76.5266 42.0748C77.4031 41.7127 78.1141 41.4215 78.6594 41.2011C79.2925 40.9334 79.7797 40.6894 80.1209 40.4691L81.4365 39.7608C81.9043 39.509 82.489 39.1942 83.1907 38.8164C83.912 38.3915 84.8135 37.8878 85.8952 37.3055C86.9778 38.516 87.9637 39.6322 88.8528 40.6541C89.7712 41.6602 90.5445 42.5249 91.1727 43.248C91.9167 44.1284 92.598 44.9145 93.2167 45.6062C93.9607 46.4866 94.7675 47.4614 95.6369 48.5304C96.5064 49.5995 97.3081 50.6135 98.042 51.5726C98.8052 52.5159 99.4331 53.2941 99.9258 53.9073C100.418 54.5204 100.655 54.7955 100.636 54.7326C100.626 54.7012 100.545 54.3788 100.393 53.7655C100.231 53.1208 100.026 52.3345 99.7777 51.4067C99.52 50.4475 99.2384 49.4096 98.9329 48.2931C98.6471 47.1294 98.3464 46.0286 98.0308 44.9908C97.7348 43.9057 97.453 42.9229 97.1852 42.0423C96.9174 41.1617 96.6873 40.517 96.4949 40.1082C96.2446 39.6207 95.8827 39.1019 95.4092 38.5516C94.9936 38.08 94.4568 37.5455 93.7988 36.9482C93.1313 36.3194 92.2695 35.6671 91.2134 34.9913C92.4216 34.3774 93.4058 33.8658 94.1659 33.4566C94.9261 33.0473 95.54 32.7168 96.0078 32.465C96.534 32.1817 96.9385 31.9456 97.2213 31.7567C97.6014 31.5521 98.0596 31.2688 98.596 30.9069C99.0738 30.5764 99.6734 30.1987 100.395 29.7737C101.136 29.3016 102.047 28.7193 103.13 28.0268C102.678 29.0021 102.348 29.8751 102.14 30.6458C101.932 31.4166 101.778 32.085 101.678 32.6512C101.568 33.2961 101.536 33.8623 101.582 34.3498C101.637 34.9789 101.817 35.9618 102.122 37.2984C102.446 38.5879 102.803 40.0425 103.194 41.6622C103.613 43.2662 104.052 44.9331 104.51 46.6629C104.968 48.3927 105.383 49.981 105.755 51.4277C106.08 52.497 106.4 53.6607 106.715 54.9187C106.972 55.9881 107.272 57.1989 107.615 58.5513C107.949 59.8722 108.273 61.2168 108.587 62.5849L104.712 64.7805C102.912 63.2243 101.383 61.8882 100.125 60.7721C98.8868 59.6088 97.8661 58.6577 97.0631 57.9189C96.1537 57.0543 95.3895 56.3312 94.7703 55.7496C94.2192 55.1679 93.5322 54.5312 92.7095 53.8396C92.0223 53.258 91.1608 52.5507 90.1249 51.7176C89.1183 50.8687 87.9275 49.9177 86.5526 48.8646C87.1248 51.0819 87.6452 52.9611 88.1139 54.5021C88.6022 55.996 89.0286 57.2304 89.3931 58.2053C89.8347 59.3218 90.2335 60.2416 90.5895 60.9649C90.9653 61.641 91.4281 62.38 91.9782 63.1819C92.4607 63.8736 93.0302 64.6833 93.6865 65.611C94.3721 66.5228 95.1738 67.5369 96.0916 68.6531C94.338 69.4874 93.0373 70.1328 92.1895 70.5892L90.8739 71.2975C90.4646 71.5179 89.9234 71.8641 89.2505 72.3362C88.6849 72.7139 87.9096 73.2411 86.9246 73.9178C85.9689 74.5788 84.7789 75.4207 83.3549 76.4436C83.7792 75.1538 84.0812 74.0213 84.261 73.0461C84.4604 72.0238 84.5958 71.1823 84.6671 70.5217C84.7681 69.7353 84.8054 69.0748 84.7789 68.5401C84.7136 67.9896 84.509 67.0933 84.1653 65.851C83.8119 64.5772 83.3815 63.162 82.8741 61.6052C82.3863 60.0013 81.8454 58.3344 81.2514 56.6047C80.6865 54.8592 80.1453 53.2474 79.6278 51.7693C79.1102 50.2912 78.645 49.041 78.2321 48.019C77.8485 46.9811 77.6038 46.3443 77.498 46.1084C77.286 45.7468 76.9767 45.4009 76.5701 45.0708C76.2119 44.7879 75.7662 44.4971 75.2331 44.1986C74.6905 43.8685 73.9873 43.57 73.1236 43.303Z" fill="#F0E100"/>
<path d="M119.203 17.7815C121.064 16.7427 122.709 16.278 124.137 16.3875C125.595 16.4812 126.861 16.8424 127.937 17.471C129.013 18.0997 129.918 18.8384 130.652 19.6874C131.377 20.5049 131.947 21.1495 132.363 21.6211C132.469 21.7469 132.648 21.8883 132.9 22.0455C133.113 22.1869 133.399 22.3441 133.758 22.5169C134.137 22.6426 134.602 22.7761 135.156 22.9174C134.259 23.4368 133.465 23.901 132.772 24.3103C132.071 24.688 131.476 25.0264 130.989 25.3254C130.443 25.6559 129.955 25.955 129.527 26.2225C129.098 26.4901 128.571 26.8284 127.947 27.2376C127.381 27.6153 126.684 28.0638 125.856 28.5832C125.027 29.1025 124.018 29.7556 122.828 30.5425C123.272 29.2055 123.589 28.0652 123.778 27.1214C123.987 26.1305 124.108 25.297 124.14 24.6207C124.192 23.8972 124.166 23.3074 124.061 22.8514C123.986 22.3796 123.857 22.0101 123.673 21.7428C123.278 21.1139 122.667 20.8389 121.84 20.9179C119.544 21.4222 117.855 22.917 116.774 25.4024C115.712 27.8405 115.405 31.0805 115.851 35.1221C116.084 37.1194 116.356 39.1874 116.666 41.3261C116.996 43.4177 117.439 45.2655 117.995 46.8694C118.541 48.4419 119.23 49.5897 120.062 50.3127C120.895 51.0358 121.945 51.0197 123.212 50.2642C124.45 49.5245 125.45 48.7298 126.212 47.8802C126.965 46.9992 127.523 46.1497 127.887 45.3317C128.241 44.4823 128.425 43.688 128.438 42.9488C128.471 42.1624 128.372 41.5019 128.142 40.9673C127.891 40.59 127.44 40.2835 126.79 40.0479C126.218 39.8437 125.412 39.7103 124.372 39.6479C123.323 39.554 121.889 39.6489 120.07 39.9328C121.591 39.0043 122.843 38.2567 123.828 37.6901C124.832 37.0763 125.617 36.5805 126.182 36.2028C126.865 35.7622 127.391 35.4238 127.762 35.1878C128.103 34.9674 128.605 34.6605 129.268 34.2671C129.843 33.9208 130.584 33.5037 131.49 33.0158C132.426 32.5121 133.59 31.8668 134.984 31.0798C134.63 31.9293 134.379 32.6685 134.23 33.2977C134.16 33.628 134.095 33.919 134.036 34.1706C134.015 34.5481 134.167 35.2164 134.493 36.1756C134.741 36.9934 135.168 38.1727 135.773 39.7137C136.368 41.2233 137.242 43.2595 138.396 45.8226L132.822 49.8118L131.148 43.3015C131.002 45.3933 130.546 47.1392 129.781 48.5392C129.045 49.9235 128.277 51.0326 127.476 51.8665C126.518 52.8577 125.45 53.6524 124.271 54.2506C122.703 54.9118 121.068 55.3529 119.366 55.5738C117.664 55.7947 116.042 55.6067 114.499 55.0097C112.947 54.3813 111.548 53.2495 110.303 51.6145C109.086 49.9636 108.15 47.6128 107.495 44.562C106.868 41.4955 106.737 38.6018 107.1 35.8808C107.483 33.1127 108.229 30.5882 109.339 28.3072C110.448 26.0263 111.858 24.0048 113.568 22.2426C115.297 20.4332 117.175 18.9462 119.203 17.7815Z" fill="#F0E100"/>
<path d="M145.538 1.84635C147.136 1.0593 148.825 0.515984 150.605 0.216398C152.405 -0.130379 154.178 -0.0603744 155.925 0.426411C157.663 0.881746 159.306 1.80894 160.854 3.20798C162.392 4.57558 163.695 6.5645 164.761 9.17475C165.644 11.2975 166.055 13.6564 165.994 16.2514C165.952 18.7992 165.58 21.3236 164.878 23.8245C164.175 26.3255 163.202 28.6614 161.957 30.8323C160.702 32.9717 159.318 34.6865 157.805 35.9768C156.888 36.7636 155.801 37.3853 154.545 37.8419C153.309 38.2514 151.99 38.5036 150.59 38.5985C149.21 38.6463 147.796 38.529 146.35 38.2465C144.932 37.9483 143.579 37.4692 142.289 36.8092C140.99 36.1178 139.809 35.2533 138.745 34.2158C137.71 33.1625 136.89 31.9204 136.285 30.4895C135.756 29.3102 135.32 27.9343 134.978 26.3617C134.656 24.7419 134.47 23.0671 134.42 21.3371C134.39 19.56 134.54 17.7591 134.869 15.9346C135.219 14.063 135.83 12.2698 136.704 10.5552C137.568 8.80907 138.713 7.2044 140.139 5.74116C141.585 4.23073 143.385 2.93246 145.538 1.84635ZM143.498 25.1785C144.112 28.764 145.227 31.3113 146.843 32.8204C148.488 34.3138 150.401 34.7297 152.581 34.0682C153.642 33.7532 154.525 33.0215 155.231 31.8732C155.956 30.6776 156.502 29.2304 156.87 27.5318C157.238 25.8331 157.437 23.9693 157.466 21.9405C157.496 19.9117 157.355 17.8829 157.044 15.8543C156.734 13.8256 156.232 12.1194 155.539 10.7357C154.866 9.30485 154.103 8.19641 153.252 7.41042C152.391 6.59299 151.489 6.09011 150.548 5.90179C149.635 5.69773 148.774 5.77674 147.966 6.13881C146.563 6.78423 145.484 7.82269 144.729 9.25419C143.964 10.6542 143.441 12.235 143.16 13.9966C142.879 15.7582 142.782 17.6219 142.87 19.5877C142.987 21.5379 143.196 23.4014 143.498 25.1785Z" fill="#F0E100"/>
</svg>